<svg width="19" height="14" viewBox="0 0 19 14" fill="none" xmlns="http://www.w3.org/2000/svg">
<path d="M1.725 0C0.772656 0 0 0.772656 0 1.725C0 2.26766 0.255156 2.77797 0.69 3.105L8.165 8.71125C8.77953 9.17125 9.62047 9.17125 10.235 8.71125L17.71 3.105C18.1448 2.77797 18.4 2.26766 18.4 1.725C18.4 0.772656 17.6273 0 16.675 0H1.725ZM0 4.74375V11.5C0 12.7686 1.03141 13.8 2.3 13.8H16.1C17.3686 13.8 18.4 12.7686 18.4 11.5V4.74375L11.27 10.0912C10.0445 11.0112 8.35547 11.0112 7.13 10.0912L0 4.74375Z" fill="#FFFEFE"/>
</svg>
