<svg width="19" height="19" viewBox="0 0 19 19" fill="none" xmlns="http://www.w3.org/2000/svg">
<path d="M8.57828 0.183281C8.95563 -0.0610937 9.44437 -0.0610937 9.82172 0.183281L17.8717 5.35828C18.2994 5.635 18.497 6.15969 18.3533 6.64844C18.2095 7.13719 17.7603 7.475 17.25 7.475H16.1V14.95L17.94 16.33C18.2311 16.5456 18.4 16.887 18.4 17.25C18.4 17.8861 17.8861 18.4 17.25 18.4H1.15C0.513906 18.4 0 17.8861 0 17.25C0 16.887 0.168906 16.5456 0.46 16.33L2.3 14.95V7.475H1.15C0.639687 7.475 0.190469 7.13719 0.0467189 6.64844C-0.0970311 6.15969 0.100625 5.63141 0.528281 5.35828L8.57828 0.183281ZM12.075 7.475V14.95H14.375V7.475H12.075ZM8.05 14.95H10.35V7.475H8.05V14.95ZM4.025 7.475V14.95H6.325V7.475H4.025Z" fill="white"/>
</svg>
