<svg width="19" height="19" viewBox="0 0 19 19" fill="none" xmlns="http://www.w3.org/2000/svg">
<path d="M9.98003 0.307266C9.538 -0.102422 8.85519 -0.102422 8.41675 0.307266L0.366752 7.78227C0.0217519 8.1057 -0.0932481 8.60523 0.0792519 9.04367C0.251752 9.48211 0.67222 9.7732 1.1466 9.7732H1.7216V16.0982C1.7216 17.3668 2.753 18.3982 4.0216 18.3982H14.3716C15.6402 18.3982 16.6716 17.3668 16.6716 16.0982V9.7732H17.2466C17.721 9.7732 18.145 9.48211 18.3175 9.04367C18.49 8.60523 18.375 8.10211 18.03 7.78227L9.98003 0.307266ZM8.6216 11.4982H9.7716C10.7239 11.4982 11.4966 12.2709 11.4966 13.2232V16.6732H6.8966V13.2232C6.8966 12.2709 7.66925 11.4982 8.6216 11.4982Z" fill="white"/>
</svg>
