<svg width="20" height="15" viewBox="0 0 20 15" fill="none" xmlns="http://www.w3.org/2000/svg">
<path d="M10 0C11.7937 0 13.25 1.45625 13.25 3.25C13.25 5.04375 11.7937 6.5 10 6.5C8.20625 6.5 6.75 5.04375 6.75 3.25C6.75 1.45625 8.20625 0 10 0ZM3 2.25C4.24375 2.25 5.25 3.25625 5.25 4.5C5.25 5.74375 4.24375 6.75 3 6.75C1.75625 6.75 0.75 5.74375 0.75 4.5C0.75 3.25625 1.75625 2.25 3 2.25ZM0 12.5C0 10.2906 1.79063 8.5 4 8.5C4.4 8.5 4.7875 8.55937 5.15312 8.66875C4.125 9.81875 3.5 11.3375 3.5 13V13.5C3.5 13.8562 3.575 14.1938 3.70937 14.5H1C0.446875 14.5 0 14.0531 0 13.5V12.5ZM16.2906 14.5C16.425 14.1938 16.5 13.8562 16.5 13.5V13C16.5 11.3375 15.875 9.81875 14.8469 8.66875C15.2125 8.55937 15.6 8.5 16 8.5C18.2094 8.5 20 10.2906 20 12.5V13.5C20 14.0531 19.5531 14.5 19 14.5H16.2906ZM14.75 4.5C14.75 3.25625 15.7563 2.25 17 2.25C18.2437 2.25 19.25 3.25625 19.25 4.5C19.25 5.74375 18.2437 6.75 17 6.75C15.7563 6.75 14.75 5.74375 14.75 4.5ZM5 13C5 10.2375 7.2375 8 10 8C12.7625 8 15 10.2375 15 13V13.5C15 14.0531 14.5531 14.5 14 14.5H6C5.44688 14.5 5 14.0531 5 13.5V13Z" fill="white"/>
</svg>
