<svg width="21" height="20" viewBox="0 0 21 20" fill="none" xmlns="http://www.w3.org/2000/svg">
<path d="M9.66359 1.91187L5.47328 6.56938C5.30797 6.75266 5.31516 7.03656 5.49125 7.21266C6.58734 8.30875 8.36625 8.30875 9.46234 7.21266L10.6052 6.06984C10.7561 5.91891 10.9466 5.83625 11.1406 5.82188C11.385 5.80031 11.6366 5.88297 11.8234 6.06984L18.17 12.3625L20.7 10.35V0L16.675 2.3L15.8197 1.72859C15.2519 1.35125 14.587 1.15 13.9042 1.15H11.3742C11.3347 1.15 11.2916 1.15 11.252 1.15359C10.6447 1.18594 10.0733 1.45906 9.66359 1.91187ZM4.19031 5.41578L8.02844 1.15H6.60531C5.68891 1.15 4.81203 1.51297 4.16516 2.15984L0 6.9V19.55L5.175 14.6625L5.62063 15.0327C6.44719 15.7227 7.48938 16.1 8.56391 16.1H9.12813L8.87656 15.8484C8.53875 15.5106 8.53875 14.9644 8.87656 14.6302C9.21438 14.2959 9.76063 14.2923 10.0948 14.6302L11.5683 16.1036H11.8917C12.5781 16.1036 13.2502 15.9491 13.8611 15.6616L12.9016 14.6984C12.5638 14.3606 12.5638 13.8144 12.9016 13.4802C13.2394 13.1459 13.7856 13.1423 14.1198 13.4802L15.2698 14.6302L15.8988 14.0013C16.2186 13.6814 16.312 13.2178 16.1719 12.8117L11.2161 7.89547L10.6806 8.43094C8.90891 10.2027 6.04109 10.2027 4.26938 8.43094C3.44281 7.60437 3.41047 6.27828 4.19031 5.41219V5.41578Z" fill="white"/>
</svg>
